<?xml version="1.0" encoding="utf-8"?>
<svg xmlns="http://www.w3.org/2000/svg" height="1024pt" version="1.1" viewBox="0 0 1024 1024" width="1024pt">
<path d="M 494.08 155.13 C 535.28 153.20 576.84 157.84 616.43 169.51 C 687.12 190.24 750.73 233.91 795.99 291.98 C 843.32 352.41 871.75 427.77 874.51 504.59 C 876.29 544.24 871.59 584.17 860.43 622.26 C 845.45 672.29 819.85 719.15 785.75 758.71 C 755.22 794.19 717.80 823.66 676.38 845.43 C 666.02 851.60 654.74 855.95 643.73 860.77 C 582.56 885.22 514.47 892.41 449.64 880.52 C 434.53 877.32 419.36 874.22 404.65 869.46 C 385.94 863.25 367.68 855.71 349.95 847.08 C 298.28 821.15 253.08 782.72 218.49 736.46 C 193.39 701.90 173.62 663.25 162.01 622.07 C 156.51 603.11 152.53 583.70 150.29 564.08 C 148.19 545.80 147.94 527.38 148.22 509.00 C 149.92 440.14 172.28 372.05 211.23 315.28 C 251.62 255.91 309.51 208.43 376.10 181.40 C 413.52 165.84 453.72 157.63 494.08 155.13 Z" fill="#3ec0c1" opacity="1.00" stroke="#3ec0c1" stroke-width="0.25"/>
<path d="M 498.96 194.96 C 501.49 193.08 503.95 190.96 506.96 189.85 C 511.53 188.84 515.60 192.76 516.37 197.06 C 520.03 212.77 518.69 229.56 512.99 244.62 C 526.33 245.24 540.61 244.33 552.28 237.20 C 558.04 234.12 557.10 225.97 562.53 222.56 C 569.54 217.44 580.44 219.87 584.64 227.47 C 587.34 222.46 589.39 217.07 589.62 211.33 C 589.46 208.57 593.03 207.41 594.98 209.01 C 599.05 212.34 601.33 217.37 602.83 222.31 C 606.12 234.18 605.05 247.49 598.78 258.23 C 619.25 262.41 640.51 263.31 661.22 260.34 C 669.17 259.35 676.78 255.73 684.91 256.42 C 690.51 257.00 694.47 262.52 694.39 267.95 C 694.93 273.83 691.82 279.02 689.63 284.22 C 696.16 280.41 701.33 274.61 705.09 268.11 C 706.89 265.16 708.49 261.52 712.02 260.33 C 716.53 258.54 721.33 261.50 723.84 265.21 C 731.51 275.53 732.06 289.29 730.41 301.57 C 729.72 309.04 727.11 316.09 724.95 323.20 C 726.27 326.47 729.35 328.99 730.95 332.26 C 743.78 331.43 756.44 328.91 768.94 326.04 C 772.17 325.26 776.13 324.80 778.62 327.52 C 781.91 330.31 781.46 335.04 780.67 338.84 C 776.69 362.42 759.38 381.53 739.35 393.40 C 739.01 395.46 739.16 397.57 739.14 399.66 C 744.78 399.81 750.38 398.57 756.02 399.06 C 759.97 399.38 763.94 402.73 763.50 406.97 C 762.80 411.04 759.54 414.01 756.45 416.45 C 749.89 421.26 742.88 425.63 735.16 428.29 C 731.08 452.51 724.44 476.18 717.37 499.67 C 728.45 498.69 739.83 502.39 748.01 509.96 C 760.77 521.28 766.04 539.34 763.97 555.99 C 761.80 576.51 748.47 594.40 731.73 605.74 C 726.01 609.80 719.46 612.53 713.91 616.84 C 707.87 621.37 701.77 626.48 694.12 627.86 C 690.53 628.86 686.83 628.20 683.39 627.04 C 680.46 633.61 678.12 640.44 674.97 646.92 C 666.72 664.30 655.65 680.45 641.85 693.89 C 618.94 715.95 588.85 729.58 557.77 735.31 C 557.50 741.57 557.70 747.84 557.47 754.11 C 565.57 753.88 574.51 755.72 579.95 762.23 C 589.86 765.43 600.17 767.48 609.97 771.06 C 613.96 772.53 615.49 777.02 614.38 780.92 C 632.39 785.51 647.82 797.25 660.00 810.98 C 667.81 819.47 673.74 829.42 679.62 839.29 C 676.48 840.96 673.45 842.80 670.34 844.51 C 667.35 839.62 664.66 834.54 661.35 829.86 C 650.66 813.83 635.55 800.59 617.66 793.21 C 615.67 792.39 613.64 791.68 611.63 790.94 C 609.30 807.70 607.68 824.56 606.61 841.45 C 606.54 842.53 606.48 843.63 606.43 844.74 C 605.77 853.35 605.41 862.04 605.98 870.68 C 602.56 872.02 598.94 872.68 595.42 873.67 C 593.75 868.65 594.88 863.13 594.70 857.91 C 595.47 856.47 595.71 854.86 595.90 853.27 C 588.67 853.23 581.44 853.17 574.22 853.56 C 574.64 861.86 574.20 870.18 574.54 878.48 C 564.71 879.93 554.79 880.94 544.93 882.31 C 513.36 885.50 481.41 883.66 450.19 878.18 C 450.60 870.07 450.29 861.96 450.43 853.85 C 443.33 853.19 436.20 853.40 429.11 852.71 C 429.53 859.31 429.30 865.93 429.36 872.54 C 425.75 871.80 422.13 871.16 418.55 870.34 C 418.47 869.26 418.39 868.19 418.32 867.12 C 410.50 860.53 403.92 852.61 397.23 844.91 C 389.86 836.65 383.42 827.64 376.78 818.80 C 369.62 827.61 363.95 837.48 358.19 847.23 C 355.29 845.28 352.25 843.58 349.22 841.85 C 354.22 832.49 359.52 823.24 366.25 814.99 C 368.63 812.60 368.20 808.76 370.70 806.47 C 373.38 803.53 376.62 801.16 379.86 798.87 C 389.57 792.00 400.08 786.05 411.49 782.51 C 410.71 779.89 409.67 776.88 411.28 774.35 C 413.07 771.80 416.19 770.78 419.05 769.93 C 427.69 767.58 436.26 764.91 445.05 763.17 C 447.80 758.00 453.67 756.03 459.02 754.84 C 462.41 753.99 465.94 754.28 469.39 754.64 C 469.29 748.37 469.31 742.11 469.20 735.85 C 451.92 732.87 435.08 727.28 419.35 719.54 C 386.22 703.21 359.93 674.21 345.52 640.34 C 343.59 636.12 341.94 631.79 340.38 627.44 C 333.20 629.76 325.60 627.34 319.32 623.70 C 315.88 621.55 312.80 618.91 309.47 616.61 C 302.99 611.90 295.64 608.54 289.20 603.77 C 275.81 594.14 265.06 580.19 261.10 564.01 C 257.68 551.01 258.96 536.81 264.77 524.68 C 272.05 509.97 287.73 499.02 304.48 499.77 C 293.18 463.25 281.65 426.28 279.32 387.88 C 277.79 368.10 278.87 347.95 283.83 328.69 C 285.85 321.87 287.96 314.90 291.94 308.93 C 293.82 306.02 297.26 304.11 300.76 304.78 C 309.46 305.92 317.99 308.06 326.62 309.65 C 323.34 287.70 323.04 265.01 328.53 243.39 C 329.82 238.94 330.98 234.36 333.35 230.35 C 335.33 226.88 340.12 225.60 343.60 227.50 C 346.78 229.08 347.97 232.67 349.43 235.66 C 354.82 248.66 363.15 260.90 374.97 268.83 C 390.84 253.48 409.39 241.07 429.00 231.00 C 443.48 223.47 458.50 217.07 473.29 210.18 C 482.24 205.84 491.11 201.14 498.96 194.96 Z" fill="#2e141f" opacity="1.00" stroke="#2e141f" stroke-width="0.25"/>
<path d="M 449.11 233.20 C 468.79 224.04 489.27 216.03 506.84 203.00 C 506.70 203.20 506.44 203.60 506.31 203.81 C 501.54 208.84 496.99 214.14 491.45 218.37 C 459.58 242.98 420.78 256.88 389.71 282.64 C 372.87 296.52 358.09 313.03 346.64 331.63 C 345.28 333.80 344.23 336.13 343.31 338.51 C 343.17 337.53 343.06 336.55 342.99 335.57 C 342.95 333.22 343.83 331.00 344.69 328.85 C 355.17 304.22 372.82 283.14 393.50 266.36 C 410.47 252.90 429.45 242.19 449.11 233.20 Z" fill="#fffefe" opacity="1.00" stroke="#fffefe" stroke-width="0.25"/>
<path d="M 491.45 218.37 C 496.99 214.14 501.54 208.84 506.31 203.81 C 506.90 205.45 507.41 207.16 507.42 208.93 C 508.10 220.20 507.37 231.71 504.06 242.55 C 501.09 241.75 497.63 242.87 496.83 246.11 C 495.50 249.10 498.48 251.17 500.75 252.41 C 513.10 258.37 527.73 259.25 540.86 255.44 C 546.25 253.67 551.73 251.61 556.05 247.81 C 559.10 245.32 562.87 243.47 564.82 239.87 C 566.80 237.05 567.08 233.07 569.86 230.86 C 573.39 229.27 577.00 231.96 578.80 234.88 C 576.22 238.06 572.59 239.99 569.43 242.48 C 567.13 243.96 568.31 247.47 570.46 248.47 C 571.87 249.19 573.42 248.38 574.74 247.82 C 584.28 243.04 591.23 234.16 594.94 224.27 C 596.85 235.60 594.61 247.24 589.33 257.37 C 587.35 257.53 584.32 256.95 583.40 259.29 C 582.45 261.21 583.66 263.02 584.83 264.49 C 584.97 264.73 585.26 265.20 585.40 265.44 L 585.95 265.85 L 586.63 266.16 C 589.02 267.00 591.35 268.03 593.54 269.31 C 600.40 273.20 608.20 274.84 615.84 276.43 C 631.02 279.35 647.06 279.80 661.91 275.00 C 665.69 273.83 669.21 271.98 672.40 269.65 C 675.52 267.90 679.23 267.71 682.72 267.26 C 682.35 277.19 676.05 285.53 669.66 292.63 C 667.62 295.09 664.59 296.92 663.47 300.01 C 662.91 302.21 665.12 303.18 666.44 304.41 C 666.55 304.61 666.77 305.03 666.88 305.23 C 677.30 306.20 688.25 304.71 697.32 299.24 C 702.30 296.10 706.66 291.93 709.81 286.94 C 712.35 282.91 713.33 278.18 714.83 273.71 C 716.85 274.89 717.86 277.03 718.74 279.10 C 721.88 290.70 719.78 303.02 716.32 314.31 C 713.51 322.87 709.58 331.07 704.73 338.67 C 703.71 340.37 702.53 342.06 702.19 344.06 C 702.32 346.46 704.85 347.78 706.96 348.15 C 709.25 348.19 710.83 346.36 712.31 344.88 L 712.37 344.97 L 712.66 345.40 C 728.49 349.20 745.44 346.64 759.98 339.55 C 763.22 338.01 766.85 337.48 770.25 336.31 C 769.89 337.87 769.64 339.47 769.16 341.01 C 764.56 346.42 758.57 350.61 751.93 353.09 C 734.93 360.36 716.20 361.20 698.06 363.03 C 678.77 365.09 659.36 364.33 640.00 364.43 C 628.63 364.66 617.31 363.50 605.99 362.67 C 597.99 361.61 589.87 361.79 581.97 360.01 C 561.81 357.95 541.65 355.59 521.41 354.40 C 512.42 353.56 503.24 353.38 494.58 350.55 C 485.30 347.54 475.86 345.00 466.72 341.57 C 468.56 340.78 470.36 339.91 472.21 339.14 C 463.86 337.79 455.40 337.93 446.97 337.87 C 430.56 337.78 414.19 339.33 397.95 341.63 C 380.30 344.55 362.69 348.15 345.83 354.25 C 344.70 353.40 343.20 352.60 343.28 350.97 C 342.73 345.68 342.37 340.30 342.95 335.00 L 342.99 335.57 C 343.06 336.55 343.17 337.53 343.31 338.51 C 344.23 336.13 345.28 333.80 346.64 331.63 C 358.09 313.03 372.87 296.52 389.71 282.64 C 420.78 256.88 459.58 242.98 491.45 218.37 Z" fill="#e16f4b" opacity="1.00" stroke="#e16f4b" stroke-width="0.25"/>
<path d="M 334.92 279.01 C 335.45 266.19 336.06 253.02 340.61 240.89 C 340.96 242.03 341.29 243.19 341.61 244.35 L 340.21 243.69 C 339.99 254.10 342.18 264.98 348.49 273.48 C 350.37 275.92 352.29 278.57 355.14 279.96 C 358.19 278.26 359.86 274.90 362.45 272.61 L 362.60 272.46 C 364.26 273.64 365.96 274.76 367.72 275.82 C 356.70 287.98 346.61 301.24 339.51 316.09 C 335.90 304.08 335.01 291.48 334.92 279.01 Z" fill="#e16f4b" opacity="1.00" stroke="#e16f4b" stroke-width="0.25"/>
<path d="M 340.21 243.69 L 341.61 244.35 C 346.26 255.26 353.82 264.58 362.45 272.61 C 359.86 274.90 358.19 278.26 355.14 279.96 C 352.29 278.57 350.37 275.92 348.49 273.48 C 342.18 264.98 339.99 254.10 340.21 243.69 Z" fill="#fffefe" opacity="1.00" stroke="#fffefe" stroke-width="0.25"/>
<path d="M 526.86 255.30 C 536.97 254.77 546.91 252.14 556.05 247.81 C 551.73 251.61 546.25 253.67 540.86 255.44 C 527.73 259.25 513.10 258.37 500.75 252.41 C 508.99 255.74 518.11 255.82 526.86 255.30 Z" fill="#fffefe" opacity="1.00" stroke="#fffefe" stroke-width="0.25"/>
<path d="M 584.83 264.49 C 594.08 268.34 603.92 270.73 613.90 271.77 C 633.36 273.82 653.15 273.30 672.40 269.65 C 669.21 271.98 665.69 273.83 661.91 275.00 C 647.06 279.80 631.02 279.35 615.84 276.43 C 608.20 274.84 600.40 273.20 593.54 269.31 C 591.35 268.03 589.02 267.00 586.63 266.16 L 585.95 265.85 L 585.40 265.44 C 585.26 265.20 584.97 264.73 584.83 264.49 Z" fill="#fffefe" opacity="1.00" stroke="#fffefe" stroke-width="0.25"/>
<path d="M 696.04 293.82 C 704.09 288.43 711.61 281.28 715.25 272.15 C 716.53 274.40 717.76 276.69 718.74 279.10 C 717.86 277.03 716.85 274.89 714.83 273.71 C 713.33 278.18 712.35 282.91 709.81 286.94 C 706.66 291.93 702.30 296.10 697.32 299.24 C 688.25 304.71 677.30 306.20 666.88 305.23 C 666.77 305.03 666.55 304.61 666.44 304.41 C 666.40 304.30 666.32 304.08 666.29 303.97 C 668.26 305.57 670.87 304.29 673.09 304.10 C 681.39 302.42 688.91 298.24 696.04 293.82 Z" fill="#fffefe" opacity="1.00" stroke="#fffefe" stroke-width="0.25"/>
<path d="M 298.59 319.58 C 299.33 318.21 299.80 316.53 301.16 315.64 C 305.11 316.28 308.97 317.41 312.93 318.01 L 312.72 318.23 C 307.95 322.73 304.95 328.75 302.92 334.91 C 299.69 344.62 298.65 354.87 297.93 365.03 C 296.39 396.19 299.63 427.41 305.24 458.04 C 306.06 463.89 307.86 469.56 308.40 475.46 C 301.50 452.71 295.55 429.61 292.19 406.05 C 289.09 384.15 288.41 361.70 292.46 339.88 C 293.68 332.89 295.89 326.12 298.59 319.58 Z" fill="#fffefe" opacity="1.00" stroke="#fffefe" stroke-width="0.25"/>
<path d="M 302.92 334.91 C 304.95 328.75 307.95 322.73 312.72 318.23 C 320.99 318.76 329.06 321.07 337.38 321.12 C 332.72 329.68 333.11 339.64 334.13 349.02 C 335.20 364.39 338.74 379.46 342.83 394.28 C 345.42 403.64 346.95 413.40 345.68 423.11 C 343.35 442.99 335.88 461.74 330.90 481.01 C 326.78 496.19 325.78 512.09 326.71 527.74 C 325.27 527.45 323.85 527.17 322.42 526.89 C 318.59 509.53 312.85 492.64 308.40 475.46 C 307.86 469.56 306.06 463.89 305.24 458.04 C 299.63 427.41 296.39 396.19 297.93 365.03 C 298.65 354.87 299.69 344.62 302.92 334.91 Z" fill="#e16f4b" opacity="1.00" stroke="#e16f4b" stroke-width="0.25"/>
<path d="M 397.95 341.63 C 414.19 339.33 430.56 337.78 446.97 337.87 C 455.40 337.93 463.86 337.79 472.21 339.14 C 470.36 339.91 468.56 340.78 466.72 341.57 C 475.86 345.00 485.30 347.54 494.58 350.55 C 503.24 353.38 512.42 353.56 521.41 354.40 C 541.65 355.59 561.81 357.95 581.97 360.01 C 589.87 361.79 597.99 361.61 605.99 362.67 C 617.31 363.50 628.63 364.66 640.00 364.43 C 659.36 364.33 678.77 365.09 698.06 363.03 C 716.20 361.20 734.93 360.36 751.93 353.09 C 758.57 350.61 764.56 346.42 769.16 341.01 C 765.79 356.78 754.62 369.69 742.02 379.15 C 731.34 386.74 719.17 392.65 706.13 394.63 C 704.69 395.00 702.17 395.01 702.17 397.06 C 701.19 401.41 705.97 403.39 709.27 404.48 L 709.49 404.94 C 709.58 405.12 709.76 405.50 709.86 405.68 C 716.14 409.37 723.43 411.72 730.76 410.36 C 735.85 410.29 740.94 411.09 746.05 410.61 C 733.24 418.73 718.66 423.43 704.04 427.07 C 678.54 433.38 651.95 433.94 625.89 431.51 C 607.65 430.05 589.63 426.63 571.86 422.35 C 549.39 416.62 527.33 408.94 506.71 398.27 C 493.33 391.14 479.60 382.83 471.48 369.59 C 469.70 367.01 469.19 363.32 466.35 361.63 C 462.41 360.56 458.70 363.04 455.02 364.07 C 433.47 370.94 410.34 374.83 387.86 370.56 C 372.91 368.14 358.35 362.83 345.83 354.25 C 362.69 348.15 380.30 344.55 397.95 341.63 Z" fill="#bb5a3e" opacity="1.00" stroke="#bb5a3e" stroke-width="0.25"/>
<path d="M 716.15 339.18 C 719.46 339.10 714.71 342.26 716.15 339.18 Z" fill="#bb5a3e" opacity="1.00" stroke="#bb5a3e" stroke-width="0.25"/>
<path d="M 714.88 342.38 C 729.95 343.85 745.14 342.28 759.98 339.55 C 745.44 346.64 728.49 349.20 712.66 345.40 L 712.37 344.97 C 713.00 344.32 714.26 343.03 714.88 342.38 Z" fill="#fffefe" opacity="1.00" stroke="#fffefe" stroke-width="0.25"/>
<path d="M 344.86 364.10 C 363.31 375.72 385.31 381.13 407.00 381.49 C 425.62 381.47 444.11 377.59 461.53 371.12 C 466.99 383.33 477.54 392.33 488.50 399.53 C 504.47 410.01 522.15 417.52 540.06 423.98 C 570.97 434.80 603.40 441.14 636.06 443.27 C 649.22 444.09 662.39 443.56 675.55 443.08 C 677.47 463.41 685.83 482.55 687.32 502.95 C 688.66 519.32 686.82 535.69 685.15 551.96 C 683.14 572.16 679.90 592.21 675.89 612.11 C 672.48 627.58 665.95 642.25 657.79 655.79 C 646.95 673.68 632.57 689.62 615.06 701.18 C 585.66 720.75 549.84 728.35 514.94 729.05 C 479.62 728.66 443.16 722.22 412.80 703.23 C 384.04 685.28 362.23 656.85 351.26 624.86 C 346.54 612.00 345.00 598.30 342.63 584.88 C 339.77 565.00 336.87 545.07 335.78 524.99 C 335.05 511.27 336.11 497.42 339.46 484.07 C 344.18 464.93 351.75 446.46 354.34 426.81 C 355.63 416.66 355.20 406.24 352.66 396.31 C 349.91 385.61 346.82 374.98 344.86 364.10 Z" fill="#fec797" opacity="1.00" stroke="#fec797" stroke-width="0.25"/>
<path d="M 709.86 405.68 C 709.76 405.50 709.58 405.12 709.49 404.94 C 716.30 407.68 723.37 409.94 730.76 410.36 C 723.43 411.72 716.14 409.37 709.86 405.68 Z" fill="#fffefe" opacity="1.00" stroke="#fffefe" stroke-width="0.25"/>
<path d="M 717.80 434.72 C 719.68 434.08 721.57 433.45 723.46 432.82 C 719.93 448.03 716.91 463.38 712.34 478.34 C 714.10 463.80 716.63 449.34 717.80 434.72 Z" fill="#fec797" opacity="1.00" stroke="#fec797" stroke-width="0.25"/>
<path d="M 683.95 441.74 C 695.37 440.13 706.67 437.75 717.80 434.72 C 716.63 449.34 714.10 463.80 712.34 478.34 C 708.32 494.82 703.17 511.06 699.54 527.65 C 696.98 538.09 695.09 548.70 692.28 559.08 C 695.09 539.54 697.66 519.73 695.95 499.97 C 694.04 480.16 686.57 461.43 683.95 441.74 Z" fill="#bb5a3e" opacity="1.00" stroke="#bb5a3e" stroke-width="0.25"/>
<path d="M 426.16 453.15 C 432.39 452.58 439.18 452.11 444.88 455.19 C 450.64 458.62 452.83 465.77 452.84 472.13 C 452.87 475.17 450.04 477.84 446.98 477.45 C 442.91 477.06 439.03 475.63 435.00 475.06 C 417.29 472.10 399.28 476.61 382.96 483.37 C 380.20 484.75 378.03 481.14 380.17 479.16 C 391.20 464.86 408.40 455.75 426.16 453.15 Z" fill="#2e141f" opacity="1.00" stroke="#2e141f" stroke-width="0.25"/>
<path d="M 580.67 454.67 C 589.55 451.03 599.50 453.01 608.44 455.43 C 623.17 460.11 637.68 468.16 646.64 481.12 C 646.02 482.83 644.45 484.65 642.52 483.44 C 624.84 476.02 604.95 471.40 585.93 476.06 C 582.19 476.57 578.04 478.98 574.46 476.74 C 571.59 474.81 571.97 470.91 572.45 467.95 C 573.26 462.70 575.30 456.79 580.67 454.67 Z" fill="#2e141f" opacity="1.00" stroke="#2e141f" stroke-width="0.25"/>
<path d="M 400.89 469.82 C 412.11 463.53 425.05 458.94 438.08 460.23 C 443.17 460.75 444.56 466.45 445.68 470.53 C 438.60 468.58 431.34 466.99 423.95 467.17 C 416.16 467.03 408.54 468.71 400.89 469.82 Z" fill="#bb5a3e" opacity="1.00" stroke="#bb5a3e" stroke-width="0.25"/>
<path d="M 579.47 470.38 C 578.84 465.36 582.87 460.47 587.94 460.32 C 600.64 459.93 612.88 464.41 624.16 469.84 C 615.13 468.75 606.13 466.65 596.97 467.34 C 591.01 467.56 585.22 468.95 579.47 470.38 Z" fill="#bb5a3e" opacity="1.00" stroke="#bb5a3e" stroke-width="0.25"/>
<path d="M 395.00 507.05 C 410.13 494.73 434.15 495.12 448.61 508.33 C 452.30 511.47 454.94 515.61 457.09 519.91 C 455.73 521.25 454.37 522.61 453.03 523.97 C 445.43 508.99 426.07 501.98 410.39 507.46 C 399.78 511.00 390.80 519.66 387.52 530.44 C 384.94 538.62 385.75 547.76 389.50 555.46 C 395.86 569.73 412.79 578.14 428.04 575.06 C 440.69 572.63 452.02 563.60 456.54 551.43 C 458.88 545.43 459.18 538.91 459.04 532.55 C 458.37 532.57 457.01 532.62 456.34 532.65 L 455.82 531.41 C 456.54 531.52 457.99 531.73 458.71 531.83 C 459.08 530.21 459.46 528.59 459.86 526.98 C 461.99 536.85 461.68 547.63 456.64 556.61 C 451.05 567.52 440.20 575.34 428.21 577.61 C 418.58 579.21 408.60 577.83 399.58 574.21 C 399.91 570.44 396.37 568.32 393.81 566.29 C 392.30 564.86 390.18 565.48 388.35 565.54 C 381.54 557.79 377.88 547.34 378.71 537.03 C 379.44 525.26 385.79 514.26 395.00 507.05 Z" fill="#2e141f" opacity="1.00" stroke="#2e141f" stroke-width="0.25"/>
<path d="M 586.30 502.28 C 599.62 495.85 616.29 497.01 628.52 505.37 C 643.92 515.18 651.52 535.76 645.23 553.07 C 641.61 563.76 632.35 571.81 622.05 575.85 C 609.97 579.41 596.13 579.42 585.01 572.91 C 570.55 564.75 562.17 547.32 565.04 530.92 C 565.63 531.79 566.24 532.66 566.85 533.54 C 566.03 543.07 568.53 552.97 574.45 560.57 C 581.50 569.53 592.50 575.55 604.00 575.74 C 621.47 575.98 638.11 561.66 639.76 544.12 C 641.51 528.77 631.49 513.18 617.02 507.99 C 606.00 503.71 592.91 505.47 583.27 512.23 C 577.93 516.36 573.23 521.64 570.68 527.95 C 570.50 525.57 570.64 523.19 570.51 520.81 C 569.90 520.47 569.29 520.17 568.66 519.90 C 572.41 512.32 578.47 505.71 586.30 502.28 Z" fill="#2e141f" opacity="1.00" stroke="#2e141f" stroke-width="0.25"/>
<path d="M 410.39 507.46 C 426.07 501.98 445.43 508.99 453.03 523.97 C 454.05 526.41 454.86 528.93 455.82 531.41 L 456.34 532.65 C 457.01 532.62 458.37 532.57 459.04 532.55 C 459.18 538.91 458.88 545.43 456.54 551.43 C 452.02 563.60 440.69 572.63 428.04 575.06 C 412.79 578.14 395.86 569.73 389.50 555.46 C 385.75 547.76 384.94 538.62 387.52 530.44 C 390.80 519.66 399.78 511.00 410.39 507.46 Z" fill="#fffefe" opacity="1.00" stroke="#fffefe" stroke-width="0.25"/>
<path d="M 583.27 512.23 C 592.91 505.47 606.00 503.71 617.02 507.99 C 631.49 513.18 641.51 528.77 639.76 544.12 C 638.11 561.66 621.47 575.98 604.00 575.74 C 592.50 575.55 581.50 569.53 574.45 560.57 C 568.53 552.97 566.03 543.07 566.85 533.54 C 569.74 533.54 570.14 530.60 570.67 528.40 L 570.68 527.95 C 573.23 521.64 577.93 516.36 583.27 512.23 Z" fill="#fffefe" opacity="1.00" stroke="#fffefe" stroke-width="0.25"/>
<path d="M 278.48 523.48 C 283.93 516.02 292.68 511.27 301.87 510.56 C 303.86 510.53 306.09 509.99 307.93 510.99 C 310.63 519.49 312.50 528.25 314.91 536.85 C 310.42 530.51 303.86 525.35 296.09 523.93 C 291.83 523.21 286.58 523.91 284.12 527.90 C 283.55 527.74 282.41 527.42 281.84 527.26 C 278.72 534.96 280.75 543.82 284.10 551.13 C 285.79 554.99 287.83 558.72 290.63 561.89 C 290.36 564.91 289.74 567.97 290.25 571.01 C 290.91 573.20 293.49 573.22 295.32 573.75 C 297.42 569.59 297.15 564.62 299.67 560.62 C 301.41 557.89 303.83 555.20 307.07 554.35 C 311.38 554.11 315.66 555.19 319.82 556.19 C 325.52 577.00 329.38 598.38 336.53 618.80 C 323.74 612.49 311.50 605.13 299.44 597.51 C 287.79 589.94 277.66 579.18 273.13 565.83 C 268.14 551.98 269.48 535.42 278.48 523.48 Z" fill="#fec797" opacity="1.00" stroke="#fec797" stroke-width="0.25"/>
<path d="M 713.98 511.00 C 720.32 510.45 726.97 510.22 732.88 513.00 C 737.33 514.92 741.17 518.07 744.38 521.67 C 744.35 521.84 744.29 522.18 744.26 522.35 C 742.99 525.75 743.64 529.41 743.51 532.96 C 743.11 543.38 739.27 553.60 732.78 561.76 C 731.04 557.09 728.48 552.52 724.28 549.66 C 720.12 546.49 714.51 545.81 709.55 547.19 C 714.20 540.73 719.71 534.17 727.33 531.19 C 730.88 529.63 735.10 530.37 738.40 528.17 C 734.37 521.96 725.79 523.45 720.08 526.20 C 714.59 528.36 711.18 533.32 706.92 537.10 C 707.81 532.48 709.41 528.05 710.35 523.45 C 711.46 519.27 712.14 514.94 713.98 511.00 Z" fill="#e16f4b" opacity="1.00" stroke="#e16f4b" stroke-width="0.25"/>
<path d="M 416.55 520.80 C 430.18 517.04 445.55 528.75 444.95 543.01 C 445.32 556.23 432.16 567.54 419.15 565.50 C 407.54 564.60 398.33 553.44 398.92 541.94 C 398.88 531.88 406.86 522.88 416.55 520.80 Z" fill="#2e141f" opacity="1.00" stroke="#2e141f" stroke-width="0.25"/>
<path d="M 564.81 530.60 C 565.62 526.88 566.77 523.22 568.66 519.90 C 569.29 520.17 569.90 520.47 570.51 520.81 C 570.64 523.19 570.50 525.57 570.68 527.95 L 570.67 528.40 C 570.14 530.60 569.74 533.54 566.85 533.54 C 566.24 532.66 565.63 531.79 565.04 530.92 L 564.81 530.60 Z" fill="#bb5a3e" opacity="1.00" stroke="#bb5a3e" stroke-width="0.25"/>
<path d="M 600.38 520.62 C 606.31 519.49 612.65 521.07 617.63 524.40 C 625.37 529.52 629.20 539.79 626.72 548.73 C 624.97 555.94 619.27 561.83 612.35 564.31 C 603.64 567.41 593.20 565.03 587.12 557.96 C 580.64 550.92 579.52 539.58 584.51 531.43 C 587.84 525.65 593.87 521.79 600.38 520.62 Z" fill="#2e141f" opacity="1.00" stroke="#2e141f" stroke-width="0.25"/>
<path d="M 453.03 523.97 C 454.37 522.61 455.73 521.25 457.09 519.91 C 458.36 522.04 459.20 524.38 459.91 526.76 L 459.86 526.98 C 459.46 528.59 459.08 530.21 458.71 531.83 C 457.99 531.73 456.54 531.52 455.82 531.41 C 454.86 528.93 454.05 526.41 453.03 523.97 Z" fill="#bb5a3e" opacity="1.00" stroke="#bb5a3e" stroke-width="0.25"/>
<path d="M 743.51 532.96 C 743.64 529.41 742.99 525.75 744.26 522.35 C 749.91 528.49 752.41 536.93 753.23 545.09 C 754.45 560.61 747.62 575.93 736.86 586.90 C 728.39 595.89 717.13 601.35 706.83 607.88 C 700.47 611.63 693.81 614.84 687.25 618.22 C 689.96 609.90 692.16 601.41 693.91 592.84 C 695.61 593.19 697.43 593.63 699.08 592.78 C 709.79 588.53 720.74 583.10 727.74 573.59 C 728.28 573.52 729.38 573.39 729.92 573.32 C 735.29 572.19 733.18 565.57 732.78 561.76 C 739.27 553.60 743.11 543.38 743.51 532.96 Z" fill="#fec797" opacity="1.00" stroke="#fec797" stroke-width="0.25"/>
<path d="M 322.42 526.89 C 323.85 527.17 325.27 527.45 326.71 527.74 C 327.41 539.19 329.22 550.50 330.65 561.87 C 328.12 550.16 325.11 538.56 322.42 526.89 Z" fill="#bb5a3e" opacity="1.00" stroke="#bb5a3e" stroke-width="0.25"/>
<path d="M 281.84 527.26 C 282.41 527.42 283.55 527.74 284.12 527.90 C 286.89 531.50 292.08 529.49 295.88 531.16 C 303.33 534.02 308.46 540.63 313.10 546.83 C 308.21 546.19 302.92 546.73 298.92 549.88 C 294.62 552.60 292.34 557.29 290.63 561.89 C 287.83 558.72 285.79 554.99 284.10 551.13 C 280.75 543.82 278.72 534.96 281.84 527.26 Z" fill="#e16f4b" opacity="1.00" stroke="#e16f4b" stroke-width="0.25"/>
<path d="M 702.49 556.55 C 707.32 555.94 711.98 553.24 716.93 554.23 C 722.52 556.27 725.54 562.31 726.54 567.86 C 727.04 569.96 726.95 573.32 729.92 573.32 C 729.38 573.39 728.28 573.52 727.74 573.59 C 720.74 583.10 709.79 588.53 699.08 592.78 C 697.43 593.63 695.61 593.19 693.91 592.84 C 696.81 580.76 699.77 568.68 702.49 556.55 Z" fill="#e16f4b" opacity="1.00" stroke="#e16f4b" stroke-width="0.25"/>
<path d="M 388.35 565.54 C 390.18 565.48 392.30 564.86 393.81 566.29 C 396.37 568.32 399.91 570.44 399.58 574.21 C 395.20 572.29 391.46 569.11 388.35 565.54 Z" fill="#bb5a3e" opacity="1.00" stroke="#bb5a3e" stroke-width="0.25"/>
<path d="M 630.17 578.23 C 640.83 575.57 653.01 582.16 655.94 592.89 C 658.56 601.05 655.62 610.52 648.98 615.89 C 643.52 620.30 635.88 622.03 629.12 619.96 C 620.38 617.54 613.58 609.12 613.46 599.97 C 612.76 589.90 620.54 580.50 630.17 578.23 Z" fill="#2e141f" opacity="1.00" stroke="#2e141f" stroke-width="0.25"/>
<path d="M 630.52 582.64 C 637.74 580.69 646.08 583.55 649.87 590.17 C 654.81 597.97 651.85 609.35 644.03 614.09 C 637.47 617.65 628.68 617.09 623.09 611.96 C 618.14 607.18 616.36 599.33 618.86 592.91 C 620.68 587.80 625.36 584.02 630.52 582.64 Z" fill="#bb5a3e" opacity="1.00" stroke="#bb5a3e" stroke-width="0.25"/>
<path d="M 378.30 583.34 C 386.59 581.35 395.67 586.31 398.80 594.17 C 401.79 601.55 398.79 610.84 392.11 615.16 C 386.56 618.75 378.99 619.25 373.25 615.81 C 366.97 612.41 363.23 604.93 364.41 597.87 C 365.27 590.61 371.26 584.79 378.30 583.34 Z" fill="#2e141f" opacity="1.00" stroke="#2e141f" stroke-width="0.25"/>
<path d="M 376.36 588.45 C 383.80 584.61 393.58 589.70 395.14 597.81 C 396.97 605.39 390.80 613.49 383.06 613.90 C 375.05 614.86 367.85 606.99 368.54 599.19 C 368.86 594.51 372.12 590.31 376.36 588.45 Z" fill="#3ec0c1" opacity="1.00" stroke="#3ec0c1" stroke-width="0.25"/>
<path d="M 632.30 591.31 C 638.82 588.56 645.62 596.62 642.71 602.76 C 640.56 608.16 632.58 609.60 628.65 605.39 C 624.68 601.08 626.56 593.03 632.30 591.31 Z" fill="#2e141f" opacity="1.00" stroke="#2e141f" stroke-width="0.25"/>
<path d="M 527.22 602.04 C 526.86 599.67 524.78 595.09 528.94 595.27 C 534.39 600.55 533.09 610.62 527.20 615.22 C 525.02 617.60 520.54 618.77 519.21 614.94 C 522.94 611.56 528.62 607.94 527.22 602.04 Z" fill="#2e141f" opacity="1.00" stroke="#2e141f" stroke-width="0.25"/>
<path d="M 456.43 629.49 C 459.03 628.28 461.15 630.53 462.56 632.42 C 472.00 644.11 485.71 652.28 500.57 654.70 C 521.68 658.54 545.18 653.02 560.47 637.43 C 563.09 635.09 564.91 632.00 567.51 629.65 C 570.73 627.71 575.57 631.21 574.43 634.92 C 572.76 638.76 569.70 641.81 566.91 644.87 C 557.64 654.65 545.17 661.04 532.07 663.89 C 515.36 667.52 497.39 666.25 481.67 659.33 C 470.65 654.58 461.07 646.67 454.08 636.95 C 451.81 634.45 453.34 630.36 456.43 629.49 Z" fill="#2e141f" opacity="1.00" stroke="#2e141f" stroke-width="0.25"/>
<path d="M 377.26 654.31 C 380.22 653.52 382.62 655.54 384.54 657.50 C 413.29 684.16 448.59 704.25 486.99 712.90 C 492.26 714.49 498.03 714.53 502.97 717.10 C 505.33 718.34 504.95 721.69 503.35 723.42 C 501.81 724.59 499.78 724.41 497.97 724.34 C 477.80 722.80 457.69 718.30 439.34 709.63 C 420.55 700.96 403.52 688.73 388.61 674.42 C 384.02 669.72 378.90 665.33 375.56 659.60 C 375.04 657.82 374.71 654.53 377.26 654.31 Z" fill="#fffefe" opacity="1.00" stroke="#fffefe" stroke-width="0.25"/>
<path d="M 338.57 693.80 C 353.32 690.74 369.01 702.02 370.92 716.93 C 373.77 732.80 360.16 749.03 344.03 748.98 C 328.90 749.90 315.24 735.98 315.92 720.95 C 315.52 707.94 325.81 695.87 338.57 693.80 Z" fill="#2e141f" opacity="1.00" stroke="#2e141f" stroke-width="0.25"/>
<path d="M 674.39 694.47 C 682.90 692.02 692.60 693.72 699.50 699.36 C 709.22 706.69 712.38 720.64 707.70 731.73 C 703.33 742.56 691.59 749.88 679.94 749.00 C 666.24 748.09 654.50 735.79 654.45 722.02 C 653.62 709.61 662.48 697.69 674.39 694.47 Z" fill="#2e141f" opacity="1.00" stroke="#2e141f" stroke-width="0.25"/>
<path d="M 479.81 737.52 C 502.03 740.82 524.71 740.78 546.91 737.32 C 546.83 749.88 546.77 762.44 546.96 775.00 C 547.10 777.56 546.83 780.40 548.33 782.65 C 550.07 784.84 553.11 784.68 555.62 784.88 C 547.04 795.97 532.33 799.79 518.94 800.61 C 505.90 801.24 492.19 799.94 480.63 793.37 C 476.77 791.29 473.30 788.50 470.55 785.09 C 474.98 786.05 480.15 782.95 479.74 778.04 C 479.66 764.53 480.18 751.02 479.81 737.52 Z" fill="#fec797" opacity="1.00" stroke="#fec797" stroke-width="0.25"/>
<path d="M 580.33 774.03 C 588.31 774.75 595.84 777.72 603.51 779.83 C 602.62 784.97 600.97 789.94 600.40 795.13 C 599.81 798.40 599.83 801.77 598.83 804.96 C 597.81 819.76 595.42 834.45 595.53 849.32 C 588.48 849.28 581.44 849.49 574.39 849.56 C 574.51 845.01 575.50 840.53 575.38 835.97 C 575.46 832.95 575.13 829.84 576.15 826.95 C 576.15 815.20 578.05 803.64 578.68 791.94 C 579.79 786.03 579.56 779.98 580.33 774.03 Z" fill="#3ec0c1" opacity="1.00" stroke="#3ec0c1" stroke-width="0.25"/>
<path d="M 421.75 780.19 C 429.19 778.08 436.52 774.99 444.31 774.52 C 446.71 799.58 449.42 824.65 449.89 849.83 C 443.00 849.46 436.10 849.53 429.22 849.09 C 428.51 842.74 428.52 836.35 428.27 829.97 C 426.94 813.29 425.25 796.59 421.75 780.19 Z" fill="#3ec0c1" opacity="1.00" stroke="#3ec0c1" stroke-width="0.25"/>
<path d="M 456.63 784.17 C 456.79 784.18 457.09 784.19 457.25 784.19 C 459.85 792.30 466.67 798.09 473.80 802.24 C 482.63 807.47 492.70 810.08 502.82 811.39 C 510.91 811.87 519.02 811.67 527.12 811.37 C 529.81 809.80 533.13 810.16 536.03 809.17 C 545.60 806.50 554.76 801.90 562.02 795.03 C 563.65 793.59 564.23 791.02 566.43 790.28 C 566.67 789.02 566.73 787.75 567.31 786.59 C 567.46 788.54 567.54 790.51 567.59 792.47 L 566.41 792.44 C 566.48 795.42 566.78 798.46 566.19 801.42 C 564.45 804.45 561.26 806.22 558.69 808.48 C 552.43 813.38 545.40 818.00 537.54 819.61 L 537.37 820.42 C 533.44 820.77 529.84 822.58 525.88 822.76 C 522.46 824.23 518.58 823.29 514.98 823.56 C 509.72 823.27 504.27 824.28 499.16 822.79 C 495.07 822.18 490.93 821.36 487.12 819.78 C 480.21 817.73 473.65 814.43 467.95 810.02 C 464.85 807.48 461.73 804.94 458.46 802.61 C 458.51 800.33 458.29 798.06 457.77 795.85 C 457.16 791.97 457.82 787.97 456.63 784.17 Z" fill="#3ec0c1" opacity="1.00" stroke="#3ec0c1" stroke-width="0.25"/>
<path d="M 611.63 790.94 C 613.64 791.68 615.67 792.39 617.66 793.21 C 615.25 807.16 614.94 821.61 610.10 835.05 C 609.24 837.33 607.96 839.43 606.61 841.45 C 607.68 824.56 609.30 807.70 611.63 790.94 Z" fill="#bb5a3e" opacity="1.00" stroke="#bb5a3e" stroke-width="0.25"/>
<path d="M 394.45 802.47 C 400.23 798.32 406.80 795.51 413.28 792.66 C 415.83 807.80 417.03 823.15 418.03 838.47 C 409.81 837.62 401.79 835.44 393.93 832.97 C 389.15 826.96 384.19 820.93 380.50 814.17 C 385.10 810.21 389.38 805.86 394.45 802.47 Z" fill="#e16f4b" opacity="1.00" stroke="#e16f4b" stroke-width="0.25"/>
<path d="M 610.10 835.05 C 614.94 821.61 615.25 807.16 617.66 793.21 C 635.55 800.59 650.66 813.83 661.35 829.86 C 643.18 836.92 625.04 844.04 606.89 851.12 C 606.70 848.99 606.51 846.86 606.43 844.74 C 606.48 843.63 606.54 842.53 606.61 841.45 C 607.96 839.43 609.24 837.33 610.10 835.05 Z" fill="#e16f4b" opacity="1.00" stroke="#e16f4b" stroke-width="0.25"/>
<path d="M 458.93 816.72 C 472.07 827.80 488.85 834.35 506.02 835.17 C 527.16 836.78 549.32 830.99 565.56 817.00 C 563.99 835.77 563.31 854.59 563.28 873.42 C 529.48 878.32 494.95 877.44 461.26 872.10 C 461.41 853.61 460.19 835.15 458.93 816.72 Z" fill="#3ec0c1" opacity="1.00" stroke="#3ec0c1" stroke-width="0.25"/>
<path d="M 606.89 851.12 C 625.04 844.04 643.18 836.92 661.35 829.86 C 664.66 834.54 667.35 839.62 670.34 844.51 L 670.66 845.05 C 664.93 847.28 659.69 850.56 654.00 852.89 C 644.20 856.92 634.46 861.15 624.29 864.16 C 618.17 866.28 611.93 868.11 605.98 870.68 C 605.41 862.04 605.77 853.35 606.43 844.74 C 606.51 846.86 606.70 848.99 606.89 851.12 Z" fill="#bb5a3e" opacity="1.00" stroke="#bb5a3e" stroke-width="0.25"/>
<path d="M 393.93 832.97 C 401.79 835.44 409.81 837.62 418.03 838.47 C 418.38 846.19 418.66 853.92 418.49 861.65 C 415.65 859.09 413.27 856.10 410.76 853.24 C 405.01 846.60 398.94 840.21 393.93 832.97 Z" fill="#bb5a3e" opacity="1.00" stroke="#bb5a3e" stroke-width="0.25"/>
</svg>